<?xml version="1.0" standalone="no"?>
<!DOCTYPE svg PUBLIC "-//W3C//DTD SVG 20010904//EN"
 "http://www.w3.org/TR/2001/REC-SVG-20010904/DTD/svg10.dtd">
<svg version="1.0" xmlns="http://www.w3.org/2000/svg"
 width="1280.000000pt" height="720.000000pt" viewBox="0 0 1280.000000 720.000000"
 preserveAspectRatio="xMidYMid meet">

<g transform="translate(0.000000,720.000000) scale(0.100000,-0.100000)"
fill="#000000" stroke="none">
<path d="M1213 6384 c-3 -8 2 -23 11 -32 15 -15 17 -15 32 0 21 21 11 48 -16
48 -11 0 -23 -7 -27 -16z"/>
<path d="M1903 6384 c-3 -8 2 -23 11 -32 15 -15 17 -15 32 0 21 21 11 48 -16
48 -11 0 -23 -7 -27 -16z"/>
<path d="M5723 6384 c-3 -8 2 -23 11 -32 15 -15 17 -15 32 0 21 21 11 48 -16
48 -11 0 -23 -7 -27 -16z"/>
<path d="M494 6377 c-2 -7 -3 -65 -2 -128 l3 -114 90 0 c83 0 90 1 90 20 0 18
-8 20 -62 23 -62 3 -63 3 -63 32 0 28 2 30 40 30 36 0 40 3 40 25 0 23 -4 25
-40 25 -36 0 -40 3 -40 25 0 23 4 24 63 27 56 3 62 5 65 26 3 21 1 22 -88 22
-65 0 -92 -4 -96 -13z"/>
<path d="M1120 6260 l0 -131 28 3 27 3 0 125 0 125 -27 3 -28 3 0 -131z"/>
<path d="M2060 6371 c-20 -38 25 -38 48 -1 11 18 10 20 -13 20 -14 0 -29 -8
-35 -19z"/>
<path d="M2600 6350 c0 -37 -2 -39 -22 -31 -78 29 -136 -102 -73 -164 26 -27
64 -32 83 -13 9 9 12 9 12 0 0 -7 11 -12 25 -12 l25 0 0 130 0 130 -25 0 c-22
0 -25 -4 -25 -40z m-12 -82 c29 -29 1 -105 -33 -91 -21 7 -30 50 -16 79 12 26
30 31 49 12z"/>
<path d="M2974 6377 c-2 -7 -3 -65 -2 -128 l3 -114 28 -3 c27 -3 27 -2 27 52
l0 56 40 0 c36 0 40 3 40 25 0 23 -4 25 -40 25 -36 0 -40 3 -40 25 0 23 4 24
63 27 56 3 62 5 65 26 3 21 1 22 -88 22 -65 0 -92 -4 -96 -13z"/>
<path d="M3980 6260 l0 -131 28 3 27 3 0 125 0 125 -27 3 -28 3 0 -131z"/>
<path d="M4459 6377 c-28 -22 -39 -55 -39 -122 0 -60 3 -69 29 -96 33 -33 75
-38 120 -14 33 17 41 33 41 86 l0 39 -50 0 c-43 0 -50 -3 -50 -20 0 -15 7 -20
25 -20 18 0 25 -5 25 -20 0 -43 -68 -46 -84 -4 -13 33 -6 102 13 125 16 21 22
22 45 11 14 -6 26 -18 26 -27 0 -9 9 -15 25 -15 33 0 33 32 0 65 -18 19 -35
25 -67 25 -24 0 -50 -6 -59 -13z"/>
<path d="M5494 6377 c-2 -7 -3 -65 -2 -128 l3 -114 66 -3 c54 -2 70 1 92 18
31 25 37 79 12 100 -14 12 -14 15 0 30 23 26 19 66 -11 89 -21 16 -41 21 -91
21 -43 0 -65 -4 -69 -13z m131 -62 c0 -16 -8 -21 -37 -23 -35 -3 -38 -1 -38
23 0 24 3 26 38 23 29 -2 37 -7 37 -23z m0 -105 c0 -22 -5 -25 -37 -28 -36 -3
-38 -2 -38 28 0 30 2 31 38 28 32 -3 37 -6 37 -28z"/>
<path d="M6120 6261 l0 -129 66 0 c76 -1 99 15 110 74 5 29 2 47 -12 74 -17
32 -23 35 -62 35 -42 0 -42 0 -42 38 0 35 -2 37 -30 37 l-30 0 0 -129z m108 7
c17 -17 15 -73 -3 -88 -23 -19 -45 5 -45 50 0 50 20 66 48 38z"/>
<path d="M1352 6315 c-38 -17 -52 -42 -52 -95 0 -54 34 -90 85 -90 35 0 85 35
85 60 0 15 -37 12 -64 -5 -22 -14 -25 -14 -40 1 -39 38 2 117 42 81 22 -20 62
-23 62 -4 0 18 -39 53 -66 59 -12 3 -35 0 -52 -7z"/>
<path d="M1559 6322 c-31 -4 -64 -36 -54 -51 8 -14 42 -14 50 -1 9 15 42 12
49 -5 3 -8 0 -15 -7 -15 -38 0 -89 -24 -99 -45 -16 -36 12 -75 55 -75 18 0 38
5 45 12 9 9 12 9 12 0 0 -7 11 -12 25 -12 25 0 25 1 25 79 0 52 -4 82 -13 89
-20 17 -60 28 -88 24z m49 -129 c-2 -11 -14 -19 -31 -21 -22 -3 -27 1 -27 17
0 17 6 21 31 21 24 0 30 -4 27 -17z"/>
<path d="M1752 6315 c-38 -17 -52 -42 -52 -95 0 -54 34 -90 85 -90 35 0 85 35
85 60 0 15 -37 12 -64 -5 -22 -14 -25 -14 -40 1 -39 38 2 117 42 81 22 -20 62
-23 62 -4 0 18 -39 53 -66 59 -12 3 -35 0 -52 -7z"/>
<path d="M2042 6315 c-41 -18 -55 -48 -49 -104 6 -54 34 -81 84 -81 52 0 83
36 83 98 0 38 -5 53 -22 69 -31 28 -59 33 -96 18z m56 -47 c7 -7 12 -27 12
-45 0 -41 -30 -61 -54 -37 -29 28 -15 94 19 94 6 0 16 -5 23 -12z"/>
<path d="M2286 6323 c-3 -4 -26 -5 -51 -5 l-45 2 0 -96 0 -95 28 3 c26 3 27 5
32 73 4 62 7 70 25 70 18 0 21 -8 25 -70 5 -68 6 -70 33 -73 l27 -3 0 68 c0
37 -6 79 -13 92 -12 24 -50 45 -61 34z"/>
<path d="M2753 6322 c-51 -8 -79 -87 -52 -145 21 -46 95 -61 137 -29 21 17 22
20 7 32 -11 9 -22 10 -38 3 -27 -12 -54 -6 -61 13 -4 11 6 14 54 14 59 0 60 0
60 29 0 55 -48 92 -107 83z m47 -57 c11 -13 7 -15 -25 -15 -32 0 -36 2 -25 15
7 8 18 15 25 15 7 0 18 -7 25 -15z"/>
<path d="M3476 6323 c-3 -4 -26 -5 -51 -5 l-45 2 0 -96 0 -95 28 3 c26 3 27 5
32 73 4 62 7 70 25 70 18 0 21 -8 25 -70 5 -68 6 -70 33 -73 l27 -3 0 68 c0
37 -6 79 -13 92 -12 24 -50 45 -61 34z"/>
<path d="M3676 6323 c-3 -4 -26 -5 -51 -5 l-45 2 0 -96 0 -95 28 3 c26 3 27 5
32 73 4 62 7 70 25 70 18 0 21 -8 25 -70 5 -68 6 -70 33 -73 l27 -3 0 68 c0
37 -6 79 -13 92 -12 24 -50 45 -61 34z"/>
<path d="M3843 6322 c-51 -8 -79 -87 -52 -145 21 -46 95 -61 137 -29 21 17 22
20 7 32 -11 9 -22 10 -38 3 -27 -12 -54 -6 -61 13 -4 11 6 14 54 14 59 0 60 0
60 29 0 55 -48 92 -107 83z m47 -57 c11 -13 7 -15 -25 -15 -32 0 -36 2 -25 15
7 8 18 15 25 15 7 0 18 -7 25 -15z"/>
<path d="M5252 6315 c-41 -18 -55 -48 -49 -104 6 -54 34 -81 84 -81 52 0 83
36 83 98 0 38 -5 53 -22 69 -31 28 -59 33 -96 18z m56 -47 c7 -7 12 -27 12
-45 0 -41 -30 -61 -54 -37 -29 28 -15 94 19 94 6 0 16 -5 23 -12z"/>
<path d="M5906 6323 c-3 -4 -26 -5 -51 -5 l-45 2 0 -96 0 -95 28 3 c26 3 27 5
32 73 4 62 7 70 25 70 18 0 20 -8 23 -73 3 -73 3 -73 30 -70 26 3 27 6 32 73
4 62 7 70 25 70 18 0 20 -8 23 -73 3 -73 3 -73 30 -70 27 3 27 4 27 80 -1 45
-6 82 -13 91 -19 22 -48 26 -78 11 -15 -8 -31 -11 -38 -6 -17 14 -43 21 -50
15z"/>
<path d="M6382 6315 c-41 -18 -55 -48 -49 -104 6 -54 34 -81 84 -81 52 0 83
36 83 98 0 38 -5 53 -22 69 -31 28 -59 33 -96 18z m56 -47 c7 -7 12 -27 12
-45 0 -41 -30 -61 -54 -37 -29 28 -15 94 19 94 6 0 16 -5 23 -12z"/>
<path d="M730 6274 l32 -45 -31 -47 -31 -47 27 -3 c19 -3 32 4 48 24 l22 28
18 -27 c11 -17 26 -27 41 -27 30 0 30 3 -1 48 -14 20 -25 41 -25 47 0 6 11 27
25 47 31 46 31 48 -3 48 -19 0 -32 -8 -43 -27 l-17 -26 -17 26 c-12 19 -26 27
-47 27 l-29 0 31 -46z"/>
<path d="M912 6192 l3 -127 25 0 c22 0 25 5 28 36 3 31 6 36 22 32 60 -16 109
43 95 116 -11 59 -28 70 -106 70 l-70 0 3 -127z m116 42 c4 -48 -18 -75 -43
-54 -18 15 -20 71 -3 88 23 23 43 9 46 -34z"/>
<path d="M1212 6228 c3 -92 3 -93 28 -93 25 0 25 1 28 93 l3 92 -31 0 -31 0 3
-92z"/>
<path d="M1902 6228 c3 -92 3 -93 28 -93 25 0 25 1 28 93 l3 92 -31 0 -31 0 3
-92z"/>
<path d="M3180 6245 c0 -100 13 -114 102 -112 l63 2 3 93 3 92 -31 0 -30 0 0
-69 c0 -51 -4 -70 -15 -75 -28 -10 -45 22 -45 85 0 56 -1 59 -25 59 -24 0 -25
-2 -25 -75z"/>
<path d="M4650 6224 l0 -95 28 3 c26 3 27 6 32 68 5 58 7 65 30 70 15 4 26 14
28 27 3 20 -1 21 -57 22 l-61 0 0 -95z"/>
<path d="M4790 6245 c0 -100 13 -114 102 -112 l63 2 3 93 3 92 -31 0 -30 0 0
-69 c0 -51 -4 -70 -15 -75 -28 -10 -45 22 -45 85 0 56 -1 59 -25 59 -24 0 -25
-2 -25 -75z"/>
<path d="M4992 6192 l3 -127 25 0 c22 0 25 5 28 36 3 31 6 36 22 32 60 -16
109 43 95 116 -11 59 -28 70 -106 70 l-70 0 3 -127z m116 42 c4 -48 -18 -75
-43 -54 -18 15 -20 71 -3 88 23 23 43 9 46 -34z"/>
<path d="M5722 6228 c3 -92 3 -93 28 -93 25 0 25 1 28 93 l3 92 -31 0 -31 0 3
-92z"/>
<path d="M4163 6244 c-10 -27 12 -35 83 -32 63 3 69 5 72 26 3 21 0 22 -73 22
-59 0 -77 -3 -82 -16z"/>
<path d="M6055 5395 l0 -325 2638 0 2637 0 -2 328 -3 327 -2 -322 -3 -323
-1800 0 -1800 0 0 315 0 315 -819 0 c-451 0 -825 2 -833 5 -11 4 -13 -53 -13
-320z m105 46 c5 -11 10 -22 10 -25 0 -12 -23 -5 -35 11 -17 23 -35 7 -35 -32
0 -39 18 -55 35 -32 12 16 35 23 35 11 0 -22 -24 -44 -48 -44 -39 0 -52 17
-52 65 0 23 5 46 12 53 19 19 66 15 78 -7z m480 9 c0 -5 -7 -10 -15 -10 -8 0
-15 5 -15 10 0 6 7 10 15 10 8 0 15 -4 15 -10z m210 0 c0 -5 -7 -10 -15 -10
-8 0 -15 5 -15 10 0 6 7 10 15 10 8 0 15 -4 15 -10z m264 -11 c14 -17 15 -23
6 -29 -9 -5 -11 -20 -7 -45 5 -30 3 -36 -11 -33 -10 2 -18 15 -20 33 -2 17 -9
36 -15 44 -9 11 -9 15 1 18 6 3 12 11 12 19 0 20 13 17 34 -7z m266 11 c0 -5
-9 -10 -20 -10 -18 0 -20 -7 -20 -55 0 -42 -3 -55 -15 -55 -12 0 -15 13 -15
55 0 48 -2 55 -20 55 -11 0 -20 5 -20 10 0 6 25 10 55 10 30 0 55 -4 55 -10z
m164 -11 c14 -17 15 -23 6 -29 -9 -5 -11 -20 -7 -45 5 -30 3 -36 -11 -33 -10
2 -18 15 -20 33 -2 17 -9 36 -15 44 -9 11 -9 15 1 18 6 3 12 11 12 19 0 20 13
17 34 -7z m156 -44 c0 -51 -3 -65 -15 -65 -12 0 -15 14 -15 65 0 51 3 65 15
65 12 0 15 -14 15 -65z m-1428 10 c16 -35 -3 -75 -35 -75 -30 0 -47 18 -47 50
0 52 61 71 82 25z m108 6 c15 -30 13 -81 -4 -81 -10 0 -16 13 -18 38 -2 20 -7
37 -13 37 -5 0 -11 -17 -13 -37 -2 -25 -8 -38 -18 -38 -10 0 -14 13 -14 50 l0
50 35 0 c24 0 37 -6 45 -19z m102 -6 c16 -35 -3 -75 -35 -75 -30 0 -47 18 -47
50 0 52 61 71 82 25z m108 10 c17 -21 4 -32 -21 -17 -16 10 -20 10 -25 -3 -4
-8 -3 -22 0 -31 5 -13 9 -14 21 -4 18 15 30 7 22 -15 -7 -18 -48 -20 -65 -3
-7 7 -12 24 -12 38 0 14 5 31 12 38 17 17 53 15 68 -3z m50 -35 c0 -38 -4 -50
-15 -50 -11 0 -15 12 -15 50 0 38 4 50 15 50 11 0 15 -12 15 -50z m158 -2 c2
-37 0 -48 -12 -48 -10 0 -16 12 -18 38 -2 20 -7 37 -13 37 -5 0 -11 -17 -13
-37 -2 -21 -7 -38 -12 -38 -5 0 -10 17 -12 38 -2 20 -7 37 -13 37 -5 0 -11
-17 -13 -37 -2 -25 -8 -38 -18 -38 -10 0 -14 13 -14 50 l0 50 68 -3 67 -2 3
-47z m52 2 c0 -38 -4 -50 -15 -50 -11 0 -15 12 -15 50 0 38 4 50 15 50 11 0
15 -12 15 -50z m100 31 c16 -32 12 -41 -21 -41 -16 0 -28 -4 -25 -9 3 -5 16
-7 27 -4 16 4 20 2 17 -8 -6 -18 -45 -24 -64 -9 -17 15 -19 61 -2 78 18 18 56
14 68 -7z m100 0 c15 -30 13 -81 -4 -81 -10 0 -16 13 -18 38 -2 20 -7 37 -13
37 -5 0 -11 -17 -13 -37 -2 -25 -8 -38 -18 -38 -10 0 -14 13 -14 50 l0 50 35
0 c24 0 37 -6 45 -19z m172 -6 c16 -35 -3 -75 -35 -75 -30 0 -47 18 -47 50 0
52 61 71 82 25z m250 0 c16 -35 -3 -75 -35 -75 -30 0 -47 18 -47 50 0 52 61
71 82 25z m162 19 c11 -4 16 -19 16 -50 0 -43 -1 -44 -34 -44 -41 0 -65 23
-46 45 7 8 21 15 31 15 11 0 19 5 19 10 0 6 -11 8 -25 4 -23 -6 -33 4 -18 19
8 9 36 9 57 1z"/>
<path d="M6224 5396 c-8 -21 3 -49 16 -41 5 3 10 15 10 25 0 25 -18 36 -26 16z"/>
<path d="M6434 5396 c-8 -21 3 -49 16 -41 5 3 10 15 10 25 0 25 -18 36 -26 16z"/>
<path d="M6905 5400 c-3 -5 -1 -10 4 -10 6 0 11 5 11 10 0 6 -2 10 -4 10 -3 0
-8 -4 -11 -10z"/>
<path d="M7174 5396 c-8 -21 3 -49 16 -41 5 3 10 15 10 25 0 25 -18 36 -26 16z"/>
<path d="M7424 5396 c-8 -21 3 -49 16 -41 5 3 10 15 10 25 0 25 -18 36 -26 16z"/>
<path d="M7595 5360 c4 -6 11 -8 16 -5 14 9 11 15 -7 15 -8 0 -12 -5 -9 -10z"/>
<path d="M3017 5558 c-18 -57 -16 -68 9 -48 13 11 19 11 36 1 11 -7 22 -11 24
-9 7 8 -30 108 -41 108 -6 0 -19 -23 -28 -52z m36 2 c3 -12 0 -20 -8 -20 -8 0
-11 8 -8 20 3 11 7 20 8 20 1 0 5 -9 8 -20z"/>
<path d="M3102 5540 c12 -45 24 -51 38 -17 l9 22 0 -22 c1 -38 26 -26 38 17 7
30 7 40 -1 37 -6 -2 -13 -14 -17 -28 -7 -24 -7 -24 -8 4 -1 17 -7 27 -16 27
-10 0 -15 -10 -16 -27 l-1 -28 -10 28 c-15 42 -27 32 -16 -13z"/>
<path d="M3215 5571 c-3 -7 3 -11 17 -12 l23 0 -22 -11 c-35 -17 -30 -48 8
-48 29 0 30 2 27 38 -2 29 -8 38 -25 40 -11 2 -24 -2 -28 -7z m35 -41 c0 -5
-5 -10 -11 -10 -5 0 -7 5 -4 10 3 6 8 10 11 10 2 0 4 -4 4 -10z"/>
<path d="M3290 5539 c0 -21 5 -39 10 -39 6 0 10 11 10 24 0 13 7 29 15 36 13
11 15 8 15 -19 0 -34 19 -48 48 -35 15 7 14 8 -5 11 -31 6 -29 23 2 23 22 0
24 3 16 19 -8 15 -22 19 -61 19 l-50 1 0 -40z"/>
<path d="M3420 5538 c0 -21 5 -38 10 -38 6 0 10 14 10 30 0 17 5 30 10 30 6 0
10 -13 10 -30 0 -16 5 -30 10 -30 6 0 10 18 10 39 0 38 -2 40 -30 39 -28 -1
-30 -4 -30 -40z"/>
<path d="M3507 5573 c-4 -3 -7 -19 -7 -35 0 -31 20 -45 48 -32 15 7 14 8 -5
11 -31 6 -29 23 2 23 23 0 24 2 15 20 -10 19 -40 27 -53 13z"/>
<path d="M3587 5573 c-13 -13 -7 -30 16 -41 l22 -11 -23 0 c-27 -1 -20 -21 8
-21 30 0 35 21 10 42 -17 14 -19 18 -6 18 9 0 16 5 16 10 0 11 -33 14 -43 3z"/>
<path d="M3657 5573 c-13 -13 -7 -30 16 -41 l22 -11 -23 0 c-27 -1 -20 -21 8
-21 30 0 35 21 10 42 -17 14 -19 18 -6 18 9 0 16 5 16 10 0 11 -33 14 -43 3z"/>
<path d="M8738 5403 c6 -2 18 -2 25 0 6 3 1 5 -13 5 -14 0 -19 -2 -12 -5z"/>
<path d="M8553 5363 c9 -2 25 -2 35 0 9 3 1 5 -18 5 -19 0 -27 -2 -17 -5z"/>
<path d="M9298 5363 c6 -2 18 -2 25 0 6 3 1 5 -13 5 -14 0 -19 -2 -12 -5z"/>
<path d="M9688 5363 c6 -2 18 -2 25 0 6 3 1 5 -13 5 -14 0 -19 -2 -12 -5z"/>
<path d="M9903 5363 c9 -2 25 -2 35 0 9 3 1 5 -18 5 -19 0 -27 -2 -17 -5z"/>
<path d="M2816 5339 c-601 -17 -1084 -61 -1143 -104 -17 -13 -15 -15 20 -30
77 -32 373 -64 812 -87 319 -17 1558 -17 1880 0 450 24 734 54 813 88 34 14
36 16 19 29 -108 79 -1353 134 -2401 104z"/>
<path d="M1745 5172 c6 -6 147 -98 315 -206 l305 -196 1075 0 1076 0 304 196
c168 107 308 199 313 203 4 4 -26 2 -67 -5 -97 -17 -358 -40 -631 -56 -299
-17 -1679 -17 -1980 0 -340 20 -628 48 -700 68 -13 4 -17 3 -10 -4z"/>
<path d="M6055 4485 l0 -355 2638 -2 2637 -3 0 358 0 357 -2637 0 -2638 0 0
-355z m5265 0 l0 -345 -1800 0 -1800 0 0 345 0 345 1800 0 1800 0 0 -345z
m-5030 64 c0 -5 4 -8 9 -5 5 3 9 -5 9 -19 0 -14 -4 -22 -8 -20 -5 3 -11 -1
-13 -7 -4 -10 -8 -9 -16 2 -6 8 -11 11 -11 7 0 -5 -5 -5 -11 -1 -8 4 -7 9 2
15 11 7 11 9 1 9 -7 0 -10 5 -7 10 4 6 11 8 16 5 5 -4 9 -1 9 4 0 6 5 11 10
11 6 0 10 -5 10 -11z m499 -64 c1 -53 -1 -65 -14 -65 -13 0 -16 11 -14 63 1
34 4 65 6 70 11 20 20 -8 22 -68z m530 0 c1 -53 -1 -65 -14 -65 -13 0 -16 11
-14 63 1 34 4 65 6 70 11 20 20 -8 22 -68z m81 60 c0 -8 -7 -15 -16 -15 -14 0
-14 3 -4 15 7 8 14 15 16 15 2 0 4 -7 4 -15z m-982 -7 c17 -17 15 -38 -3 -38
-8 0 -15 5 -15 10 0 6 -9 10 -20 10 -16 0 -20 -7 -20 -35 0 -28 4 -35 20 -35
11 0 20 5 20 10 0 6 7 10 15 10 8 0 15 -6 15 -13 0 -21 -22 -37 -50 -37 -37 0
-50 18 -50 65 0 47 13 65 50 65 14 0 31 -5 38 -12z m482 -53 l0 -65 -33 0
c-40 0 -57 15 -57 50 0 30 17 50 42 50 10 0 18 7 18 15 0 8 7 15 15 15 12 0
15 -14 15 -65z m-372 23 c7 -7 12 -24 12 -38 0 -31 -17 -50 -45 -50 -28 0 -45
19 -45 50 0 31 17 50 45 50 12 0 26 -5 33 -12z m110 0 c18 -18 16 -88 -3 -88
-10 0 -15 11 -15 35 0 24 -5 35 -15 35 -10 0 -15 -11 -15 -35 0 -24 -5 -35
-15 -35 -11 0 -15 12 -15 50 0 50 0 50 33 50 18 0 38 -5 45 -12z m86 6 c29
-11 19 -35 -11 -29 l-28 5 28 -11 c21 -8 27 -17 25 -33 -2 -17 -10 -21 -38
-21 -25 0 -36 5 -38 18 -3 15 1 17 25 12 l28 -5 -27 11 c-26 10 -37 37 -21 52
8 9 36 9 57 1z m276 -13 c17 -32 12 -41 -22 -42 -32 -2 -32 -2 -5 -6 16 -3 26
-10 24 -16 -5 -17 -45 -21 -63 -7 -17 15 -19 61 -2 78 18 18 56 14 68 -7z m80
9 c0 -6 -7 -13 -15 -16 -9 -4 -15 -19 -15 -40 0 -24 -5 -34 -15 -34 -11 0 -15
12 -15 50 0 49 1 50 30 50 17 0 30 -5 30 -10z m88 -42 l3 -48 -34 0 c-62 0
-73 51 -14 63 18 4 17 5 -5 6 -27 1 -35 11 -21 25 4 4 21 6 38 4 28 -3 30 -6
33 -50z m100 40 c21 -21 13 -30 -18 -23 -26 6 -30 4 -30 -15 0 -19 4 -21 30
-15 17 4 30 3 30 -2 0 -16 -23 -33 -45 -33 -28 0 -45 19 -45 50 0 31 17 50 45
50 12 0 26 -5 33 -12z m150 0 c7 -7 12 -24 12 -38 0 -31 -17 -50 -45 -50 -28
0 -45 19 -45 50 0 31 17 50 45 50 12 0 26 -5 33 -12z m100 0 c18 -18 16 -88
-3 -88 -10 0 -15 11 -15 35 0 24 -5 35 -15 35 -10 0 -15 -11 -15 -35 0 -24 -5
-35 -15 -35 -11 0 -15 12 -15 50 0 50 0 50 33 50 18 0 38 -5 45 -12z"/>
<path d="M7798 4763 c12 -2 30 -2 40 0 9 3 -1 5 -23 4 -22 0 -30 -2 -17 -4z"/>
<path d="M8148 4763 c6 -2 18 -2 25 0 6 3 1 5 -13 5 -14 0 -19 -2 -12 -5z"/>
<path d="M8648 4763 c7 -3 16 -2 19 1 4 3 -2 6 -13 5 -11 0 -14 -3 -6 -6z"/>
<path d="M9558 4723 c6 -2 18 -2 25 0 6 3 1 5 -13 5 -14 0 -19 -2 -12 -5z"/>
<path d="M8153 4703 c9 -2 23 -2 30 0 6 3 -1 5 -18 5 -16 0 -22 -2 -12 -5z"/>
<path d="M8743 4683 c9 -2 25 -2 35 0 9 3 1 5 -18 5 -19 0 -27 -2 -17 -5z"/>
<path d="M9128 4683 c6 -2 18 -2 25 0 6 3 1 5 -13 5 -14 0 -19 -2 -12 -5z"/>
<path d="M9373 4683 c9 -2 25 -2 35 0 9 3 1 5 -18 5 -19 0 -27 -2 -17 -5z"/>
<path d="M9643 4683 c9 -2 25 -2 35 0 9 3 1 5 -18 5 -19 0 -27 -2 -17 -5z"/>
<path d="M8153 4633 c9 -2 23 -2 30 0 6 3 -1 5 -18 5 -16 0 -22 -2 -12 -5z"/>
<path d="M8648 4633 c7 -3 16 -2 19 1 4 3 -2 6 -13 5 -11 0 -14 -3 -6 -6z"/>
<path d="M7838 4523 c7 -3 16 -2 19 1 4 3 -2 6 -13 5 -11 0 -14 -3 -6 -6z"/>
<path d="M7933 4443 c9 -2 25 -2 35 0 9 3 1 5 -18 5 -19 0 -27 -2 -17 -5z"/>
<path d="M8633 4413 c9 -2 25 -2 35 0 9 3 1 5 -18 5 -19 0 -27 -2 -17 -5z"/>
<path d="M7838 4393 c7 -3 16 -2 19 1 4 3 -2 6 -13 5 -11 0 -14 -3 -6 -6z"/>
<path d="M9698 4373 c6 -2 18 -2 25 0 6 3 1 5 -13 5 -14 0 -19 -2 -12 -5z"/>
<path d="M8633 4343 c9 -2 25 -2 35 0 9 3 1 5 -18 5 -19 0 -27 -2 -17 -5z"/>
<path d="M9028 4333 c6 -2 18 -2 25 0 6 3 1 5 -13 5 -14 0 -19 -2 -12 -5z"/>
<path d="M9253 4333 c9 -2 25 -2 35 0 9 3 1 5 -18 5 -19 0 -27 -2 -17 -5z"/>
<path d="M9513 4333 c9 -2 25 -2 35 0 9 3 1 5 -18 5 -19 0 -27 -2 -17 -5z"/>
<path d="M9783 4333 c9 -2 25 -2 35 0 9 3 1 5 -18 5 -19 0 -27 -2 -17 -5z"/>
<path d="M7978 4303 c6 -2 18 -2 25 0 6 3 1 5 -13 5 -14 0 -19 -2 -12 -5z"/>
<path d="M7983 4243 c9 -2 23 -2 30 0 6 3 -1 5 -18 5 -16 0 -22 -2 -12 -5z"/>
<path d="M7983 4173 c9 -2 23 -2 30 0 6 3 -1 5 -18 5 -16 0 -22 -2 -12 -5z"/>
<path d="M6840 4470 c0 -11 7 -20 15 -20 8 0 15 9 15 20 0 11 -7 20 -15 20 -8
0 -15 -9 -15 -20z"/>
<path d="M6480 4470 c0 -11 7 -20 15 -20 8 0 15 9 15 20 0 11 -7 20 -15 20 -8
0 -15 -9 -15 -20z"/>
<path d="M7370 4470 c0 -11 7 -20 15 -20 8 0 15 9 15 20 0 11 -7 20 -15 20 -8
0 -15 -9 -15 -20z"/>
<path d="M2922 4698 c-7 -7 -12 -26 -12 -43 0 -17 5 -36 12 -43 17 -17 48 -15
55 3 7 21 -6 33 -16 16 -12 -19 -31 -4 -31 24 0 28 19 43 31 24 10 -17 23 -5
16 16 -7 18 -38 20 -55 3z"/>
<path d="M3230 4700 c0 -5 5 -10 10 -10 6 0 10 5 10 10 0 6 -4 10 -10 10 -5 0
-10 -4 -10 -10z"/>
<path d="M3310 4696 c0 -7 -9 -16 -21 -19 -16 -4 -20 -12 -17 -39 2 -28 7 -34
31 -36 27 -3 27 -2 27 52 0 31 -4 56 -10 56 -5 0 -10 -6 -10 -14z m0 -56 c0
-11 -4 -20 -10 -20 -5 0 -10 9 -10 20 0 11 5 20 10 20 6 0 10 -9 10 -20z"/>
<path d="M3564 4695 c-15 -30 -3 -89 19 -93 16 -3 17 -1 5 17 -10 17 -10 25 0
41 7 11 8 20 3 20 -5 0 -11 8 -13 18 -4 15 -5 15 -14 -3z"/>
<path d="M3610 4700 c0 -5 5 -10 10 -10 6 0 10 5 10 10 0 6 -4 10 -10 10 -5 0
-10 -4 -10 -10z"/>
<path d="M3004 4666 c-3 -8 -4 -25 -2 -38 2 -17 9 -23 28 -23 22 0 25 4 25 35
0 29 -4 36 -23 38 -13 2 -24 -3 -28 -12z m36 -26 c0 -11 -4 -20 -10 -20 -5 0
-10 9 -10 20 0 11 5 20 10 20 6 0 10 -9 10 -20z"/>
<path d="M3080 4638 c0 -21 5 -38 10 -38 6 0 10 14 10 30 0 17 5 30 10 30 6 0
10 -13 10 -30 0 -16 5 -30 10 -30 6 0 10 18 10 39 0 38 -2 40 -30 39 -28 -1
-30 -4 -30 -40z"/>
<path d="M3167 4673 c-13 -13 -7 -30 16 -41 l22 -11 -23 0 c-27 -1 -20 -21 8
-21 30 0 35 21 10 42 -17 14 -19 18 -6 18 9 0 16 5 16 10 0 11 -33 14 -43 3z"/>
<path d="M3230 4640 c0 -22 5 -40 10 -40 6 0 10 18 10 40 0 22 -4 40 -10 40
-5 0 -10 -18 -10 -40z"/>
<path d="M3357 4673 c-4 -3 -7 -19 -7 -35 0 -31 20 -45 48 -32 15 7 14 8 -5
11 -31 6 -29 23 2 23 23 0 24 2 15 20 -10 19 -40 27 -53 13z"/>
<path d="M3430 4640 c0 -22 5 -40 10 -40 6 0 10 11 10 24 0 31 19 44 50 36
l25 -6 -22 -8 c-14 -4 -23 -16 -23 -27 0 -15 7 -19 31 -19 29 0 30 2 27 38
l-3 37 -52 2 -53 3 0 -40z m90 -10 c0 -5 -5 -10 -11 -10 -5 0 -7 5 -4 10 3 6
8 10 11 10 2 0 4 -4 4 -10z"/>
<path d="M3610 4640 c0 -22 5 -40 10 -40 6 0 10 18 10 40 0 22 -4 40 -10 40
-5 0 -10 -18 -10 -40z"/>
<path d="M3654 4666 c-3 -8 -4 -25 -2 -38 2 -17 9 -23 28 -23 22 0 25 4 25 35
0 29 -4 36 -23 38 -13 2 -24 -3 -28 -12z m36 -26 c0 -11 -4 -20 -10 -20 -5 0
-10 9 -10 20 0 11 5 20 10 20 6 0 10 -9 10 -20z"/>
<path d="M3730 4638 c0 -21 5 -38 10 -38 6 0 10 14 10 30 0 17 5 30 10 30 6 0
10 -13 10 -30 0 -16 5 -30 10 -30 6 0 10 18 10 39 0 38 -2 40 -30 39 -28 -1
-30 -4 -30 -40z"/>
<path d="M3008 4449 c-375 -18 -648 -69 -648 -120 0 -30 180 -71 425 -96 216
-22 894 -25 1115 -5 255 23 456 66 467 99 3 7 -10 21 -27 31 -121 74 -778 119
-1332 91z"/>
<path d="M2421 4273 c2 -5 78 -96 169 -201 l165 -192 606 0 606 0 173 201 c95
111 164 198 154 195 -91 -28 -263 -50 -514 -67 -199 -13 -822 -7 -990 11 -116
11 -324 45 -354 56 -11 4 -17 3 -15 -3z"/>
<path d="M6055 3050 l0 -850 2638 0 2637 0 -2 853 -3 852 -2 -847 -3 -848
-1800 0 -1800 0 -2 188 c-2 103 -1 483 2 845 l5 657 -835 0 -835 0 0 -850z
m639 38 c15 -25 -3 -52 -38 -56 -20 -3 -26 -9 -26 -28 0 -15 -6 -24 -15 -24
-12 0 -15 14 -15 66 l0 65 41 -3 c27 -2 46 -9 53 -20z m316 7 c0 -8 8 -15 18
-15 25 0 42 -20 42 -50 0 -35 -17 -50 -57 -50 l-33 0 0 65 c0 51 3 65 15 65 8
0 15 -7 15 -15z m-240 -25 c0 -6 -7 -13 -15 -16 -9 -4 -15 -19 -15 -40 0 -24
-5 -34 -15 -34 -11 0 -15 12 -15 50 0 49 1 50 30 50 17 0 30 -5 30 -10z m42
-27 c2 -21 8 -38 13 -38 6 0 11 17 13 38 2 24 8 37 18 37 10 0 14 -13 14 -51
l0 -50 -42 3 -43 3 -3 48 c-2 36 0 47 12 47 10 0 16 -12 18 -37z m148 18 c17
-32 12 -41 -22 -42 -32 -2 -32 -2 -5 -6 16 -3 26 -10 24 -16 -5 -17 -45 -21
-63 -7 -17 15 -19 61 -2 78 18 18 56 14 68 -7z m208 -33 l3 -48 -34 0 c-62 0
-73 51 -14 63 18 4 17 5 -5 6 -27 1 -35 11 -21 25 4 4 21 6 38 4 28 -3 30 -6
33 -50z"/>
<path d="M6630 3070 c0 -5 9 -10 20 -10 11 0 20 5 20 10 0 6 -9 10 -20 10 -11
0 -20 -4 -20 -10z"/>
<path d="M7010 3030 c0 -11 7 -20 15 -20 8 0 15 9 15 20 0 11 -7 20 -15 20 -8
0 -15 -9 -15 -20z"/>
<path d="M3060 3796 c0 -31 5 -56 10 -56 6 0 10 9 10 19 0 12 9 21 26 25 20 5
25 12 22 34 -2 22 -9 28 -35 30 l-33 3 0 -55z m50 19 c0 -8 -7 -15 -15 -15 -8
0 -15 7 -15 15 0 8 7 15 15 15 8 0 15 -7 15 -15z"/>
<path d="M3350 3795 c0 -30 5 -55 10 -55 6 0 10 14 10 30 0 17 5 30 10 30 6 0
10 -13 10 -30 0 -16 5 -30 10 -30 6 0 10 18 10 40 0 33 -3 40 -20 40 -11 0
-20 7 -20 15 0 8 -4 15 -10 15 -5 0 -10 -25 -10 -55z"/>
<path d="M3152 3783 c3 -33 7 -38 31 -41 26 -3 27 -1 27 37 0 23 -4 41 -10 41
-5 0 -10 -13 -10 -30 0 -16 -4 -30 -10 -30 -5 0 -10 14 -10 30 0 17 -5 30 -11
30 -6 0 -9 -16 -7 -37z"/>
<path d="M3230 3780 c0 -22 5 -40 10 -40 6 0 10 11 10 24 0 13 6 29 14 35 12
10 15 7 18 -21 2 -27 7 -33 27 -33 13 0 26 6 29 14 3 9 -1 11 -17 6 -17 -5
-21 -2 -21 15 0 13 5 20 14 18 8 -2 16 2 18 7 2 6 -20 11 -49 12 l-53 3 0 -40z"/>
<path d="M3435 3811 c-3 -7 3 -11 17 -12 l23 0 -22 -11 c-35 -17 -30 -48 8
-48 29 0 30 2 27 38 -2 29 -8 38 -25 40 -11 2 -24 -2 -28 -7z m35 -41 c0 -5
-5 -10 -11 -10 -5 0 -7 5 -4 10 3 6 8 10 11 10 2 0 4 -4 4 -10z"/>
<path d="M3517 3813 c-13 -13 -7 -30 16 -41 l22 -11 -23 0 c-27 -1 -20 -21 8
-21 30 0 35 21 10 42 -17 14 -19 18 -6 18 9 0 16 5 16 10 0 11 -33 14 -43 3z"/>
<path d="M3587 3813 c-4 -3 -7 -19 -7 -35 0 -31 20 -45 48 -32 15 7 14 8 -5
11 -31 6 -29 23 2 23 23 0 24 2 15 20 -10 19 -40 27 -53 13z"/>
<path d="M7948 3683 c12 -2 30 -2 40 0 9 3 -1 5 -23 4 -22 0 -30 -2 -17 -4z"/>
<path d="M9598 3673 c6 -2 18 -2 25 0 6 3 1 5 -13 5 -14 0 -19 -2 -12 -5z"/>
<path d="M9783 3673 c9 -2 25 -2 35 0 9 3 1 5 -18 5 -19 0 -27 -2 -17 -5z"/>
<path d="M10088 3673 c6 -2 18 -2 25 0 6 3 1 5 -13 5 -14 0 -19 -2 -12 -5z"/>
<path d="M10393 3673 c9 -2 25 -2 35 0 9 3 1 5 -18 5 -19 0 -27 -2 -17 -5z"/>
<path d="M10813 3673 c9 -2 25 -2 35 0 9 3 1 5 -18 5 -19 0 -27 -2 -17 -5z"/>
<path d="M11003 3673 c9 -2 25 -2 35 0 9 3 1 5 -18 5 -19 0 -27 -2 -17 -5z"/>
<path d="M3135 3588 c-216 -17 -390 -68 -390 -113 0 -74 350 -134 710 -122
326 12 546 68 521 132 -16 41 -192 86 -409 104 -146 12 -273 12 -432 -1z"/>
<path d="M10533 3443 c16 -3 25 -9 21 -15 -4 -7 -2 -8 4 -4 22 14 12 26 -20
25 -31 -2 -31 -2 -5 -6z"/>
<path d="M2762 3423 c3 -4 53 -97 113 -206 l107 -197 375 2 376 3 103 190 c57
105 104 194 104 198 0 4 -8 3 -18 -2 -107 -57 -536 -89 -828 -60 -122 12 -259
41 -305 65 -17 8 -29 12 -27 7z"/>
<path d="M9598 3363 c6 -2 18 -2 25 0 6 3 1 5 -13 5 -14 0 -19 -2 -12 -5z"/>
<path d="M9783 3363 c9 -2 25 -2 35 0 9 3 1 5 -18 5 -19 0 -27 -2 -17 -5z"/>
<path d="M10088 3363 c6 -2 18 -2 25 0 6 3 1 5 -13 5 -14 0 -19 -2 -12 -5z"/>
<path d="M10393 3363 c9 -2 25 -2 35 0 9 3 1 5 -18 5 -19 0 -27 -2 -17 -5z"/>
<path d="M10813 3363 c9 -2 25 -2 35 0 9 3 1 5 -18 5 -19 0 -27 -2 -17 -5z"/>
<path d="M11003 3363 c9 -2 25 -2 35 0 9 3 1 5 -18 5 -19 0 -27 -2 -17 -5z"/>
<path d="M7933 3333 c16 -3 25 -9 21 -15 -4 -7 -2 -8 4 -4 22 14 12 26 -20 25
-31 -2 -31 -2 -5 -6z"/>
<path d="M8013 3263 c9 -2 23 -2 30 0 6 3 -1 5 -18 5 -16 0 -22 -2 -12 -5z"/>
<path d="M8733 3143 c9 -2 25 -2 35 0 9 3 1 5 -18 5 -19 0 -27 -2 -17 -5z"/>
<path d="M9203 3143 c9 -2 25 -2 35 0 9 3 1 5 -18 5 -19 0 -27 -2 -17 -5z"/>
<path d="M9723 3143 c9 -2 25 -2 35 0 9 3 1 5 -18 5 -19 0 -27 -2 -17 -5z"/>
<path d="M10153 3143 c9 -2 25 -2 35 0 9 3 1 5 -18 5 -19 0 -27 -2 -17 -5z"/>
<path d="M10343 3143 c9 -2 25 -2 35 0 9 3 1 5 -18 5 -19 0 -27 -2 -17 -5z"/>
<path d="M2750 2915 c0 -30 5 -55 10 -55 6 0 10 11 10 24 0 16 8 26 23 31 l22
8 -22 4 c-28 5 -30 23 -3 23 11 0 20 5 20 10 0 6 -13 10 -30 10 -30 0 -30 -1
-30 -55z"/>
<path d="M3274 2955 c-15 -30 -3 -89 19 -93 16 -3 17 -1 5 17 -10 17 -10 25 0
41 7 11 8 20 3 20 -5 0 -11 8 -13 18 -4 15 -5 15 -14 -3z"/>
<path d="M3360 2916 c0 -31 5 -56 10 -56 6 0 10 9 10 19 0 12 9 21 26 25 20 5
25 12 22 34 -2 22 -9 28 -35 30 l-33 3 0 -55z m50 19 c0 -8 -7 -15 -15 -15 -8
0 -15 7 -15 15 0 8 7 15 15 15 8 0 15 -7 15 -15z"/>
<path d="M3650 2915 c0 -30 5 -55 10 -55 6 0 10 14 10 30 0 17 5 30 10 30 6 0
10 -13 10 -30 0 -16 5 -30 10 -30 6 0 10 18 10 40 0 33 -3 40 -20 40 -11 0
-20 7 -20 15 0 8 -4 15 -10 15 -5 0 -10 -25 -10 -55z"/>
<path d="M2830 2899 c0 -21 5 -39 10 -39 6 0 10 11 10 24 0 13 7 29 15 36 13
11 15 8 15 -19 0 -34 19 -48 48 -35 15 7 14 8 -5 11 -31 6 -29 23 2 23 22 0
24 3 16 19 -8 15 -22 19 -61 19 l-50 1 0 -40z"/>
<path d="M2964 2926 c-12 -31 0 -61 25 -61 13 0 26 6 29 14 3 9 -1 11 -17 6
-17 -5 -21 -2 -21 15 0 13 5 20 14 18 8 -2 16 2 18 7 5 17 -42 18 -48 1z"/>
<path d="M3032 2903 c3 -33 7 -38 31 -41 26 -3 27 -1 27 37 0 23 -4 41 -10 41
-5 0 -10 -13 -10 -30 0 -16 -4 -30 -10 -30 -5 0 -10 14 -10 30 0 17 -5 30 -11
30 -6 0 -9 -16 -7 -37z"/>
<path d="M3117 2933 c-4 -3 -7 -19 -7 -35 0 -31 20 -45 48 -32 15 7 14 8 -5
11 -31 6 -29 23 2 23 23 0 24 2 15 20 -10 19 -40 27 -53 13z"/>
<path d="M3190 2898 c0 -21 5 -38 10 -38 6 0 10 14 10 30 0 17 5 30 10 30 6 0
10 -13 10 -30 0 -16 5 -30 10 -30 6 0 10 18 10 39 0 38 -2 40 -30 39 -28 -1
-30 -4 -30 -40z"/>
<path d="M3452 2903 c3 -33 7 -38 31 -41 26 -3 27 -1 27 37 0 23 -4 41 -10 41
-5 0 -10 -13 -10 -30 0 -16 -4 -30 -10 -30 -5 0 -10 14 -10 30 0 17 -5 30 -11
30 -6 0 -9 -16 -7 -37z"/>
<path d="M3530 2900 c0 -22 5 -40 10 -40 6 0 10 11 10 24 0 13 6 29 14 35 12
10 15 7 18 -21 2 -27 7 -33 27 -33 13 0 26 6 29 14 3 9 -1 11 -17 6 -17 -5
-21 -2 -21 15 0 13 5 20 14 18 8 -2 16 2 18 7 2 6 -20 11 -49 12 l-53 3 0 -40z"/>
<path d="M3735 2931 c-3 -7 3 -11 17 -12 l23 0 -22 -11 c-35 -17 -30 -48 8
-48 29 0 30 2 27 38 -2 29 -8 38 -25 40 -11 2 -24 -2 -28 -7z m35 -41 c0 -5
-5 -10 -11 -10 -5 0 -7 5 -4 10 3 6 8 10 11 10 2 0 4 -4 4 -10z"/>
<path d="M3817 2933 c-13 -13 -7 -30 16 -41 l22 -11 -23 0 c-27 -1 -20 -21 8
-21 30 0 35 21 10 42 -17 14 -19 18 -6 18 9 0 16 5 16 10 0 11 -33 14 -43 3z"/>
<path d="M3887 2933 c-4 -3 -7 -19 -7 -35 0 -31 20 -45 48 -32 15 7 14 8 -5
11 -31 6 -29 23 2 23 23 0 24 2 15 20 -10 19 -40 27 -53 13z"/>
<path d="M9598 2903 c6 -2 18 -2 25 0 6 3 1 5 -13 5 -14 0 -19 -2 -12 -5z"/>
<path d="M9783 2903 c9 -2 25 -2 35 0 9 3 1 5 -18 5 -19 0 -27 -2 -17 -5z"/>
<path d="M10088 2903 c6 -2 18 -2 25 0 6 3 1 5 -13 5 -14 0 -19 -2 -12 -5z"/>
<path d="M10393 2903 c9 -2 25 -2 35 0 9 3 1 5 -18 5 -19 0 -27 -2 -17 -5z"/>
<path d="M10783 2903 c9 -2 25 -2 35 0 9 3 1 5 -18 5 -19 0 -27 -2 -17 -5z"/>
<path d="M8083 2863 c16 -3 25 -9 21 -15 -4 -7 -2 -8 4 -4 22 14 12 26 -20 25
-31 -2 -31 -2 -5 -6z"/>
<path d="M7993 2793 c9 -2 23 -2 30 0 6 3 -1 5 -18 5 -16 0 -22 -2 -12 -5z"/>
<path d="M9873 2763 c16 -3 25 -9 21 -15 -4 -7 -2 -8 4 -4 22 14 12 26 -20 25
-31 -2 -31 -2 -5 -6z"/>
<path d="M3210 2729 c-91 -11 -172 -34 -222 -62 -94 -52 -38 -115 136 -155
111 -25 396 -22 500 6 124 34 172 73 147 120 -13 24 -94 59 -180 78 -86 18
-285 25 -381 13z"/>
<path d="M8733 2683 c9 -2 25 -2 35 0 9 3 1 5 -18 5 -19 0 -27 -2 -17 -5z"/>
<path d="M9203 2683 c9 -2 25 -2 35 0 9 3 1 5 -18 5 -19 0 -27 -2 -17 -5z"/>
<path d="M9723 2683 c9 -2 25 -2 35 0 9 3 1 5 -18 5 -19 0 -27 -2 -17 -5z"/>
<path d="M10153 2683 c9 -2 25 -2 35 0 9 3 1 5 -18 5 -19 0 -27 -2 -17 -5z"/>
<path d="M10343 2683 c9 -2 25 -2 35 0 9 3 1 5 -18 5 -19 0 -27 -2 -17 -5z"/>
<path d="M2962 2548 c3 -7 36 -97 73 -200 l68 -188 252 0 252 0 70 193 c39
105 70 193 68 195 -1 1 -15 -5 -31 -13 -80 -39 -154 -50 -354 -50 -207 0 -277
11 -364 56 -25 13 -37 16 -34 7z"/>
<path d="M9598 2363 c6 -2 18 -2 25 0 6 3 1 5 -13 5 -14 0 -19 -2 -12 -5z"/>
<path d="M9783 2363 c9 -2 25 -2 35 0 9 3 1 5 -18 5 -19 0 -27 -2 -17 -5z"/>
<path d="M10073 2363 c9 -2 25 -2 35 0 9 3 1 5 -18 5 -19 0 -27 -2 -17 -5z"/>
<path d="M10593 2363 c9 -2 25 -2 35 0 9 3 1 5 -18 5 -19 0 -27 -2 -17 -5z"/>
<path d="M11123 2363 c9 -2 25 -2 35 0 9 3 1 5 -18 5 -19 0 -27 -2 -17 -5z"/>
<path d="M2890 2055 c0 -61 19 -77 21 -17 l1 37 10 -38 c12 -45 28 -44 42 4
l10 34 7 -40 c6 -38 6 -37 8 18 1 68 -21 80 -36 20 l-10 -38 -8 38 c-5 27 -12
37 -26 37 -16 0 -19 -8 -19 -55z"/>
<path d="M3174 2095 c-15 -30 -3 -89 19 -93 16 -3 17 -1 5 17 -10 17 -10 25 0
41 7 11 8 20 3 20 -5 0 -11 8 -13 18 -4 15 -5 15 -14 -3z"/>
<path d="M3250 2055 c0 -30 5 -55 10 -55 6 0 10 11 10 24 0 16 8 26 23 31 l22
8 -22 4 c-28 5 -30 23 -3 23 11 0 20 5 20 10 0 6 -13 10 -30 10 -30 0 -30 -1
-30 -55z"/>
<path d="M3784 2095 c-15 -30 -3 -89 19 -93 16 -3 17 -1 5 17 -10 17 -10 25 0
41 7 11 8 20 3 20 -5 0 -11 8 -13 18 -4 15 -5 15 -14 -3z"/>
<path d="M3024 2066 c-3 -8 -4 -25 -2 -38 2 -17 9 -23 28 -23 22 0 25 4 25 35
0 29 -4 36 -23 38 -13 2 -24 -3 -28 -12z m36 -26 c0 -11 -4 -20 -10 -20 -5 0
-10 9 -10 20 0 11 5 20 10 20 6 0 10 -9 10 -20z"/>
<path d="M3107 2073 c-13 -13 -7 -30 16 -41 l22 -11 -23 0 c-27 -1 -20 -21 8
-21 30 0 35 21 10 42 -17 14 -19 18 -6 18 9 0 16 5 16 10 0 11 -33 14 -43 3z"/>
<path d="M3330 2039 c0 -21 5 -39 10 -39 6 0 10 11 10 24 0 13 7 29 15 36 13
11 15 8 15 -19 0 -34 19 -48 48 -35 15 7 14 8 -5 11 -31 6 -29 23 2 23 22 0
24 3 16 19 -8 15 -22 19 -61 19 l-50 1 0 -40z"/>
<path d="M3467 2073 c-4 -3 -7 -20 -7 -36 0 -20 6 -30 20 -34 11 -3 20 -12 20
-19 0 -8 5 -14 10 -14 6 0 10 25 10 55 0 51 -2 55 -23 55 -13 0 -27 -3 -30 -7z
m33 -33 c0 -11 -4 -20 -10 -20 -5 0 -10 9 -10 20 0 11 5 20 10 20 6 0 10 -9
10 -20z"/>
<path d="M3542 2043 c3 -33 7 -38 31 -41 26 -3 27 -1 27 37 0 23 -4 41 -10 41
-5 0 -10 -13 -10 -30 0 -16 -4 -30 -10 -30 -5 0 -10 14 -10 30 0 17 -5 30 -11
30 -6 0 -9 -16 -7 -37z"/>
<path d="M3627 2073 c-4 -3 -7 -19 -7 -35 0 -31 20 -45 48 -32 15 7 14 8 -5
11 -31 6 -29 23 2 23 23 0 24 2 15 20 -10 19 -40 27 -53 13z"/>
<path d="M3700 2038 c0 -21 5 -38 10 -38 6 0 10 14 10 30 0 17 5 30 10 30 6 0
10 -13 10 -30 0 -16 5 -30 10 -30 6 0 10 18 10 39 0 38 -2 40 -30 39 -28 -1
-30 -4 -30 -40z"/>
<path d="M6055 1740 c0 -188 2 -229 13 -225 8 3 382 5 833 5 l819 0 0 220 0
220 1800 0 1800 0 3 -227 2 -228 3 233 2 232 -2637 0 -2638 0 0 -230z m533
158 c17 -17 15 -38 -3 -38 -8 0 -15 5 -15 10 0 6 -9 10 -20 10 -16 0 -20 -7
-20 -35 0 -37 9 -42 40 -23 10 7 23 9 27 5 14 -14 -14 -42 -45 -45 -52 -5 -80
58 -46 106 17 24 62 30 82 10z m110 -30 c7 -7 12 -24 12 -38 0 -14 -5 -31 -12
-38 -28 -28 -88 -2 -88 38 0 40 60 66 88 38z m115 0 c4 -10 7 -10 18 0 19 17
68 15 76 -4 3 -9 0 -20 -8 -25 -11 -7 -11 -9 -1 -9 8 0 12 -9 10 -22 -4 -27
-50 -37 -74 -17 -10 8 -14 8 -14 0 0 -6 -9 -11 -20 -11 -16 0 -20 7 -20 35 0
19 -4 35 -10 35 -5 0 -10 -16 -10 -35 0 -24 -5 -35 -15 -35 -11 0 -15 12 -15
50 l0 50 39 0 c22 0 41 -5 44 -12z m147 -23 c0 -19 5 -35 10 -35 6 0 10 16 10
35 0 28 4 35 20 35 17 0 20 -7 20 -50 l0 -50 -40 0 c-44 0 -60 18 -60 69 0 24
4 31 20 31 16 0 20 -7 20 -35z m208 -17 c2 -38 0 -48 -12 -48 -12 0 -16 10
-16 35 0 19 -4 35 -10 35 -5 0 -10 -16 -10 -35 0 -28 -4 -35 -20 -35 -16 0
-20 7 -20 35 0 19 -4 35 -10 35 -5 0 -10 -16 -10 -35 0 -24 -5 -35 -15 -35
-11 0 -15 12 -15 50 l0 51 68 -3 67 -3 3 -47z m100 40 c7 -7 12 -24 12 -38 0
-14 -5 -31 -12 -38 -28 -28 -88 -2 -88 38 0 40 60 66 88 38z m-388 -238 c0
-57 -3 -70 -16 -70 -12 0 -15 12 -13 63 2 66 5 77 20 77 5 0 9 -31 9 -70z
m-252 32 c2 -13 -2 -29 -8 -37 -8 -10 -8 -19 -1 -34 15 -26 14 -31 -4 -31 -9
0 -21 11 -27 25 -6 14 -15 25 -20 25 -4 0 -8 -11 -8 -25 0 -16 -6 -25 -15 -25
-12 0 -15 14 -15 66 l0 65 48 -3 c40 -3 47 -6 50 -26z m512 13 c0 -8 5 -15 10
-15 6 0 10 -7 10 -15 0 -8 -4 -15 -10 -15 -5 0 -10 -9 -10 -19 0 -11 5 -23 10
-26 18 -11 10 -25 -15 -25 -25 0 -25 1 -40 74 -2 11 0 28 6 38 12 22 39 24 39
3z m-410 -30 c11 -13 14 -13 27 0 17 18 55 19 71 3 21 -21 13 -30 -18 -23 -26
6 -30 4 -30 -15 0 -19 4 -21 30 -15 31 7 39 -2 18 -23 -18 -18 -56 -14 -75 8
-11 13 -29 20 -48 19 l-30 -1 29 -7 c40 -8 39 -25 -1 -29 -23 -2 -35 3 -47 20
-20 28 -20 42 0 62 19 20 58 21 74 1z m248 3 c24 -24 14 -48 -20 -49 l-33 -1
29 -7 c40 -8 39 -25 -1 -29 -23 -2 -35 3 -47 20 -20 28 -20 42 0 62 18 19 55
21 72 4z m106 -4 c3 -9 6 -31 6 -50 0 -27 -4 -34 -20 -34 -16 0 -20 7 -20 35
0 19 -4 35 -10 35 -5 0 -10 -16 -10 -35 0 -24 -5 -35 -15 -35 -11 0 -15 12
-15 50 l0 50 39 0 c26 0 41 -5 45 -16z m164 4 c24 -24 14 -48 -20 -49 l-33 -1
29 -7 c40 -8 39 -25 -1 -29 -23 -2 -35 3 -47 20 -20 28 -20 42 0 62 18 19 55
21 72 4z"/>
<path d="M6650 1829 c0 -24 23 -21 28 4 2 10 -3 17 -12 17 -10 0 -16 -9 -16
-21z"/>
<path d="M6820 1828 c0 -8 14 -14 33 -15 17 0 25 1 17 4 -8 3 -23 10 -32 15
-13 6 -18 5 -18 -4z"/>
<path d="M7220 1829 c0 -24 23 -21 28 4 2 10 -3 17 -12 17 -10 0 -16 -9 -16
-21z"/>
<path d="M6560 1650 c0 -5 6 -10 14 -10 8 0 18 5 21 10 3 6 -3 10 -14 10 -12
0 -21 -4 -21 -10z"/>
<path d="M3188 1844 c-26 -8 -54 -24 -63 -37 -15 -21 -14 -23 10 -44 66 -58
295 -67 401 -17 65 31 48 73 -39 99 -65 19 -245 19 -309 -1z"/>
<path d="M9238 1753 c6 -2 18 -2 25 0 6 3 1 5 -13 5 -14 0 -19 -2 -12 -5z"/>
<path d="M8703 1713 c9 -2 25 -2 35 0 9 3 1 5 -18 5 -19 0 -27 -2 -17 -5z"/>
<path d="M8933 1713 c9 -2 25 -2 35 0 9 3 1 5 -18 5 -19 0 -27 -2 -17 -5z"/>
<path d="M9833 1713 c9 -2 25 -2 35 0 9 3 1 5 -18 5 -19 0 -27 -2 -17 -5z"/>
<path d="M10238 1153 c6 -2 18 -2 25 0 6 3 1 5 -13 5 -14 0 -19 -2 -12 -5z"/>
<path d="M8058 1113 c6 -2 18 -2 25 0 6 3 1 5 -13 5 -14 0 -19 -2 -12 -5z"/>
<path d="M8328 1113 c6 -2 18 -2 25 0 6 3 1 5 -13 5 -14 0 -19 -2 -12 -5z"/>
<path d="M9258 1113 c6 -2 18 -2 25 0 6 3 1 5 -13 5 -14 0 -19 -2 -12 -5z"/>
<path d="M9878 1113 c6 -2 18 -2 25 0 6 3 1 5 -13 5 -14 0 -19 -2 -12 -5z"/>
<path d="M10393 1113 c9 -2 25 -2 35 0 9 3 1 5 -18 5 -19 0 -27 -2 -17 -5z"/>
<path d="M10693 1113 c9 -2 25 -2 35 0 9 3 1 5 -18 5 -19 0 -27 -2 -17 -5z"/>
<path d="M11048 1113 c6 -2 18 -2 25 0 6 3 1 5 -13 5 -14 0 -19 -2 -12 -5z"/>
<path d="M11840 485 l0 -225 219 0 218 0 16 63 c35 132 48 298 31 365 l-6 22
-239 0 -239 0 0 -225z m82 -97 c5 -55 -2 -75 -21 -64 -17 11 -14 116 3 116 10
0 15 -16 18 -52z m178 22 c0 -12 -7 -20 -17 -20 -15 0 -16 -2 -3 -10 11 -7 19
-5 29 10 15 22 65 28 77 9 4 -8 9 -8 17 0 14 14 57 14 57 1 0 -5 -7 -10 -16
-10 -13 0 -11 -4 7 -18 30 -25 20 -52 -21 -52 -21 0 -30 5 -30 16 0 10 6 14
15 10 8 -3 15 -1 15 3 0 21 -28 18 -39 -5 -12 -28 -51 -33 -74 -9 -13 13 -16
13 -21 0 -8 -21 -56 -20 -56 1 0 10 6 14 15 10 8 -3 15 -1 15 3 0 5 -7 11 -15
15 -8 3 -15 15 -15 26 0 15 7 20 25 20 14 0 25 5 25 10 0 6 2 10 5 10 3 0 5
-9 5 -20z m-82 -12 c27 -27 7 -78 -30 -78 -10 0 -18 -7 -18 -15 0 -8 -7 -15
-15 -15 -12 0 -15 13 -15 60 l0 60 33 0 c18 0 38 -5 45 -12z"/>
<path d="M12141 376 c-9 -10 -9 -16 -1 -21 16 -10 31 7 21 23 -6 10 -10 10
-20 -2z"/>
<path d="M11977 383 c-13 -12 -7 -33 8 -33 8 0 15 9 15 20 0 20 -11 26 -23 13z"/>
<path d="M6398 320 c2 -22 6 -40 8 -40 2 0 4 18 4 40 0 22 -3 40 -8 40 -4 0
-6 -18 -4 -40z"/>
</g>
</svg>
